<svg id="图层_4" 
data-name="图层 4" xmlns="http://www.w3.org/2000/svg"
height="120pt" width="120pt"
viewBox="0 0 286 286"
fill="#2a4b67">
<style>
    .cls-1{fill:#974b50;}
    .cls-2{fill:#fff;}
    .cls-3{fill:#dbb80e;}
    .cls-4{fill:#007cad;}
</style>
<path d="M169.38,268.08l2.19-.95-15.19-30.87c-3.9-7.47-6.88-13.07-8.84-16.35a4.09,4.09,0,0,1-.65-2.59c.44-3.73,6.77-3.61,11.6-8.14,6-5.67,5.68-14.85,5.58-16.49a22.45,22.45,0,0,0-3.15-10.23,22.65,22.65,0,0,0-36.26-3.16,22.74,22.74,0,0,0-6,14.84,22.05,22.05,0,0,0,8.21,17.39c6.08,4.64,12.41,3.3,13.24,6.76.42,1.73-1.09,2.41-4.61,8.63-.2.36-11.31,21.68-19.9,38.15l5-2.66,2.26,2.92,2.17-3,2.3,2.23,1.86-1.64,1.41,5.34,2.76-6.4,1.59,3.62,9.62-21.13L157,271q1.06-2,2.12-4l2.83,5.44,1.2-3.18,3.61,1.46.27-4.42Z"/>
<path d="M147.28,156.88c.79.08,2.55.3,4.8.71a96.89,96.89,0,0,1,10.37,2.59c6.16,1.75,9.24,2.62,11,2.8a34,34,0,0,0,13.9-1.62,44.38,44.38,0,0,0,11.53-5.58,62.94,62.94,0,0,0,9.11-7.17c3.51-3.19,5.57-5.07,7.77-8.24a38.73,38.73,0,0,0,4.93-10.06,63.66,63.66,0,0,0,2.23-9.84c.72-4.06,1.08-6.12.92-8a18.46,18.46,0,0,0-3.18-8.94,12.65,12.65,0,0,0-4.45-4.23,11.8,11.8,0,0,0-7.62-1.15,12.54,12.54,0,0,0-5.57,2.74,16.17,16.17,0,0,0-4.5,5.47c-.6,1.4-1.47,3.4-2.56,5.8-1.84,4.07-2.78,6.14-3.91,8.13-2.38,4.19-3.57,6.28-6.14,7.92-1.22.78-4.1,2.61-7.18,1.65-2.83-.87-4.17-3.6-4.74-4.75-1-2-1.09-3.81-1.25-7.36a54.59,54.59,0,0,1,.09-6.07c.34-6.78.66-10.09.66-10.09.83-9.33,1.25-14,1.5-14.73,1.79-5.09,5-8.55,8.77-12.65,1.45-1.57,3.06-3,6.29-6,3.6-3.26,7.49-6.23,11-9.58,4.54-4.32,9.36-8.37,13.32-13.33.66-.79,5.44-6.71,3.77-14.11a16.83,16.83,0,0,0-6.54-9.51,20.57,20.57,0,0,0-10.84-4.12c-4.82-.52-8.43.62-12.72,2a58.67,58.67,0,0,0-15.94,8.14l-9.27,7.76c-2.34,2.28-5.48,5.5-9,9.6a70.17,70.17,0,0,0-5.82,7.4c-3.49,5.44-2.87,7.1-6.23,13.12-3,5.44-4.66,8.32-8.15,10.13-5.39,2.78-11.24.92-13.49.2a22,22,0,0,1-11.56-8.83,17.34,17.34,0,0,1-3-8.06c-.26-3,.51-5.13,3.79-12.55,5-11.29,5.73-12.13,5.87-15.11.07-1.63.23-7-3.32-11.45A17.31,17.31,0,0,0,105.34,15,20.33,20.33,0,0,0,98,13.18a21.33,21.33,0,0,0-10.42,2.21,27.1,27.1,0,0,0-8.76,6.83c-1,1.15-4,4.76-6.86,13.26-3.07,9-3.35,15.81-3.91,29.34a32.48,32.48,0,0,0,1,10.27,23.42,23.42,0,0,0,3.1,7.09,22.82,22.82,0,0,0,4.68,4.93c1.66,1.41,2.87,2.19,7.82,5.17,7.26,4.39,8.3,4.91,10.1,6.69a24.23,24.23,0,0,1,4.17,5.47,22.16,22.16,0,0,1,1.91,4.53,18.05,18.05,0,0,1,.67,3.19,20.92,20.92,0,0,1-.48,6.27,39,39,0,0,1-1.22,5.62c-1.46,4.43-4,7.38-6.52,10.34-1.36,1.58-1,1-5.62,5.78-2.48,2.6-3.72,3.89-5,5.39a81.58,81.58,0,0,0-6.25,8.06A55.64,55.64,0,0,0,69,171.18a66.76,66.76,0,0,0-1.73,22.52,13.1,13.1,0,0,0,2.07,6,13.82,13.82,0,0,0,6.11,5,15.93,15.93,0,0,0,10.13.76,16.63,16.63,0,0,0,7.47-3.95c2.42-2.3,3.33-4.7,4.55-7.89,3.56-9.32,5.34-14,6.91-16.66A43.35,43.35,0,0,1,126.25,159a41,41,0,0,1,12.64-2.56A60.8,60.8,0,0,1,147.28,156.88ZM72.43,63.43c-.34-.23-1.43-1.09-.94-8a65.34,65.34,0,0,1,1.65-10.55C76.22,31.53,76.86,30.7,77.75,30c2.15-1.75,5.39-1.82,11.88-2a66,66,0,0,1,12.07,1c9.1,1.3,9.87,2.38,10.15,2.9.88,1.66-.35,3.07-3.59,10.49-3.55,8.12-3.43,9.52-5.66,11.17s-2.8.72-9.37,2.54a93.44,93.44,0,0,0-11.33,4C75.66,62.81,73.88,64.38,72.43,63.43Zm38.54,101c-2.21,2.68-4,5-5.33,6.85a74.69,74.69,0,0,0-4.85,7.13,58.55,58.55,0,0,0-3,5.91,19.71,19.71,0,0,1-1.65,4.39c-1,2.09-1.06,4.44-2.11,6.55a15.69,15.69,0,0,1-2.6,3.74,14,14,0,0,1-6.17,4.05c-4.55,1.33-10.16-.22-13-3.94-1.25-1.61-1.6-3.14-2.12-5.58-1.75-8.15.13-15.48,1.74-21.72.18-.72.91-3.49,1-3.72.89-3.36,1.34-5.05,1.48-5.45.93-2.61,2.17-4.31,4.12-7,1.24-1.69,1.35-1.63,4.13-5,3.71-4.51,3.77-4.92,5.94-7.36s1.73-1.64,5.52-5.62c5.47-5.74,6-7.31,6.51-8a25,25,0,0,0,1.92-4.2,2.82,2.82,0,0,1,.69-1.24c.7.57,1.73,1.42,3,2.49,2.12,1.82,2.43,2.2,4.13,3.68,3.9,3.42,4.48,3.38,5.78,5.09a14.64,14.64,0,0,1,2.26,4.28c1,3.16.28,6.07-1.33,10.67A119.44,119.44,0,0,1,111,164.46Zm23-43.25a4.89,4.89,0,0,1,2.41-3.35,5.13,5.13,0,0,1,6.06.51,4.94,4.94,0,0,1,.72,6.06,5.27,5.27,0,0,1-4.81,2.28A5.15,5.15,0,0,1,134,121.21Zm2.91-35.61c2.86-.13,6.19,7.94,6.2,15.08,0,5.86-2.25,13.08-4.94,13.19s-5.66-7-6.1-13.09C131.52,93.88,134,85.73,136.87,85.6ZM129,155a1.49,1.49,0,0,1-.57.06s1.14-15.15,4.11-17.42c1.81-1.39,4.22-1.34,5.93-1.32a9,9,0,0,1,5,1.05c2.39,1.55,3.07,4.57,4.14,9.35.21.9.63,3,1.49,5.89.17.57.32,1,.42,1.34a23.27,23.27,0,0,0-5.15-.94c-.94-.07-1.77-.06-3-.06s-2.43,0-4,.14a38.48,38.48,0,0,0-5.17.79M183.59,25.53a11.56,11.56,0,0,1,3.94.83,25.31,25.31,0,0,1,10.73,7.35c.15.15,1.45,1.88,4.06,5.33,4,5.26,5.18,7,4.8,9-.18.95-.73,1.66-1.83,3-2.23,2.78-4,4-6.61,6.12-4.78,4-8,7.35-8,7.35-2.22,2.29-3,3.42-4.5,3.41-1.76,0-2.67-1.71-4.82-4.11C179.69,62,177,60,171.45,55.89c-2.17-1.62-4.6-3.41-8-5.52-2.58-1.58-4.83-2.8-6.52-3.66a70.88,70.88,0,0,1,7.1-8.07,125.56,125.56,0,0,1,10.07-8.14C178.81,26.87,180.77,25.55,183.59,25.53Zm36.56,93.26a51,51,0,0,1-1,6.92,46.56,46.56,0,0,1-1.79,6.07c-.74,1.87-2.27,5-8.32,10.94-4.6,4.54-8,7.88-13.62,11.13-3.58,2.06-8,4.52-14.21,5.38-3.7.51-8.38,1.15-12.57-1.48-2.12-1.33-3.3-3.11-5.64-6.66-2.23-3.37-4.21-6.35-5-10.76a21.88,21.88,0,0,1,.36-9,14.31,14.31,0,0,1,3.64-3.81c1-.74,5.05-3.62,8-2.26,1.55.7,1.19,1.81,3.38,4a11.6,11.6,0,0,0,5.83,3.35c3.62.64,6.68-1.52,8.35-2.69,2.9-2,4.33-4.42,6.63-8.29s1.83-4,4.91-9.79c2.73-5.11,4.27-7.18,6.63-8.86,2.67-1.9,4.49-1.94,5.08-1.93a8.42,8.42,0,0,1,5,2.16,12.58,12.58,0,0,1,4.26,5.74C220.88,110.82,220.64,113.48,220.15,118.79Z"/>
<path class="cls-1" d="M77.81,210.4a23.18,23.18,0,0,1,9.48-2.22,22.39,22.39,0,0,1,8.48,1.49c1.52.58,7.84,3.13,7.66,6.26-.08,1.45-1.51,2.49-3.38,3.83A17.53,17.53,0,0,1,94,222.41a26.92,26.92,0,0,1-6.54.94,28.24,28.24,0,0,1-6.59-.62,8.32,8.32,0,0,1-4.63-2.55,6.4,6.4,0,0,1-2-4.62C74.36,212.27,77.62,210.5,77.81,210.4Z"/>
<path class="cls-2" d="M121,199l2.83,3.57-.11,0,8.24-3.67.05,0h.06l5.15,1.08.17,0v.18l.06,6.82-.28-.27,2.69,0h.22l.06.22,2.67,9.81-.64-.11,2.33-3.37-.07.16,1-7.05v.2l-1.81-5.68-.09-.28.21-.22q3.27-3.32,6.56-6.61v.7c-2.19-2.42-4.33-4.89-6.5-7.33l-.36-.42.49-.22,4.5-2,4.51-2-.1.25-1.65-4.43.09,0,1.93,4.32.07.17-.17.09-4.41,2.17-4.43,2.15.13-.64c2.22,2.4,4.46,4.78,6.65,7.2l.32.36-.34.34q-3.25,3.31-6.58,6.59l.13-.5,1.71,5.72,0,.1,0,.1-1.13,7,0,.09-.05.07-2.37,3.34-.45.63-.19-.74-2.54-9.85.28.21-2.69,0h-.27V207l.05-6.82.18.21L132,199.24h.11l-8.31,3.52-.06,0,0-.06-2.76-3.62Z"/>
<path class="cls-2" d="M144.22,244.61c-.52-.67-1-1.36-1.54-2.05l-1.51-2.06-2.95-4.17-.18-.25.21-.25c2.39-2.91,4.81-5.8,7.29-8.65l-.09.47c-.79-2.46-1.56-4.92-2.28-7.39-.36-1.24-.76-2.47-1.09-3.72s-.7-2.48-1-3.73c.49,1.19.94,2.4,1.41,3.61s.88,2.42,1.33,3.63q1.33,3.63,2.56,7.3l.09.25-.18.21q-3.63,4.33-7.39,8.56l0-.5,2.7,4.34,1.32,2.19C143.37,243.13,143.8,243.87,144.22,244.61Z"/>
<path d="M238.3,150.44c-1.07-5.85-3.24-11.18-3.9-17-.11-1-.25-2.68.41-3,.43-.18,1.05.29,1.46.66A39.49,39.49,0,0,1,239,139c2,8.72.63,16.81.1,16.81C238.82,155.76,239,154.06,238.3,150.44Z"/>
<path d="M229.44,154.89a37.1,37.1,0,0,1-2.12-5.88c-.94-3.1-1.93-5.8-1.19-6.89a1.76,1.76,0,0,1,.79-.65,1.87,1.87,0,0,1,1.31.14c1.17.53,1.23,2.89,2,6.7a30.29,30.29,0,0,1,.87,6.27c0,1.8-.18,2.14-.35,2.18S230.06,156.2,229.44,154.89Z"/>
<path d="M74.87,121.7a35.76,35.76,0,0,1,.41,7.66c-.07,1.3-.34,4.55-.34,4.55h0a33.48,33.48,0,0,1-1.77-3.74c-1.21-3-1.12-4-2.37-9-.42-1.73-1.87-7.43-1.15-9.86.12-.39.42-1.43,1.11-1.57a1,1,0,0,1,.63.11c1.22.55,1.68,2.64,1.75,3,.46,1.89.89,3.89,1.26,6C74.57,119.81,74.73,120.77,74.87,121.7Z"/>
<path d="M64.18,131.72c-.16,0-.45-.18-1-2.18a29.5,29.5,0,0,1-1.08-5.7c-.47-6-2.44-9.84-1.09-11.45a1.48,1.48,0,0,1,1.05-.61A1.38,1.38,0,0,1,63.2,113c.59,2.69.79,6.18,1.39,10.25a20,20,0,0,1,.46,5.33C65,129.71,64.67,131.69,64.18,131.72Z"/>
<path d="M139.34,52.37a44.12,44.12,0,0,1-2.61-7.25c-1.83-6.92-.17-7.39-1.53-12.34-.11-.41-.82-2.92.14-4a.9.9,0,0,1,.65-.38c.42,0,.81.58,1,1.42.9,5.24,1.62,10.86,2.05,16.83Q139.24,49.55,139.34,52.37Z"/>
<path class="cls-3" d="M97.79,245.53a23.33,23.33,0,0,1,3.95-8.9,22.82,22.82,0,0,1,6.3-5.86c1.39-.86,7.23-4.36,9.62-2.34,1.11.94,1.07,2.72,1,5a17.67,17.67,0,0,1-1.53,6.44,27.13,27.13,0,0,1-3.2,5.77,27.8,27.8,0,0,1-4.47,4.89,8.41,8.41,0,0,1-4.83,2.16,6.43,6.43,0,0,1-4.89-1.18C97.21,249.42,97.76,245.75,97.79,245.53Z"/>
<path class="cls-4" d="M207.67,186.88a23.26,23.26,0,0,1-6.42,7.33,22.42,22.42,0,0,1-7.76,3.71c-1.58.42-8.2,2-9.88-.63-.78-1.23-.21-2.91.53-5.09a17.47,17.47,0,0,1,3.38-5.68,27.48,27.48,0,0,1,4.77-4.56,28.12,28.12,0,0,1,5.73-3.34,8.42,8.42,0,0,1,5.25-.62,6.48,6.48,0,0,1,4.32,2.59C209.39,183.35,207.77,186.69,207.67,186.88Z"/>
<path d="M131.56,52.53a38.05,38.05,0,0,1-2.12-5.87c-.93-3.1-1.93-5.8-1.19-6.89a1.79,1.79,0,0,1,.79-.66,1.87,1.87,0,0,1,1.31.14c1.17.54,1.24,2.9,2,6.7a29.69,29.69,0,0,1,.88,6.27c0,1.8-.19,2.14-.36,2.18S132.18,53.84,131.56,52.53Z"/>
</svg>