<?xml version="1.0" standalone="no"?>
<!DOCTYPE svg PUBLIC "-//W3C//DTD SVG 20010904//EN"
 "http://www.w3.org/TR/2001/REC-SVG-20010904/DTD/svg10.dtd">
<svg version="1.0" xmlns="http://www.w3.org/2000/svg"
 width="100.000000pt" height="100.000000pt" viewBox="0 0 801.000000 801.000000"
 preserveAspectRatio="xMidYMid meet">
<metadata>
Created by potrace 1.16, written by Peter Selinger 2001-2019
</metadata>

<!-- Egon Shiele - Portrait of Erwin Dominilk Osen (Mime Van Osen) 1910 -->

<g transform="translate(0.000000,801.000000) scale(0.100000,-0.100000)"
fill="#2a4b67" stroke="none">
<path d="M5015 7900 c-3 -5 -17 -10 -29 -10 -13 0 -30 -9 -37 -21 -12 -17 -28
-22 -84 -26 -48 -4 -83 -13 -112 -29 -23 -13 -63 -27 -88 -31 -26 -3 -49 -12
-52 -19 -3 -8 -13 -14 -22 -14 -9 0 -29 -7 -45 -15 -15 -8 -33 -15 -40 -15
-16 0 -134 -58 -141 -70 -3 -6 -13 -10 -22 -10 -8 0 -27 -8 -41 -19 -15 -10
-46 -24 -68 -31 -23 -7 -54 -24 -68 -37 -15 -13 -48 -31 -75 -39 -27 -8 -54
-21 -61 -29 -7 -8 -18 -15 -24 -15 -12 0 -46 -66 -46 -88 0 -17 -41 -82 -52
-82 -6 0 -24 -12 -41 -26 -27 -23 -37 -25 -80 -20 -51 7 -58 11 -110 62 -48
46 -191 66 -450 63 -161 -2 -199 0 -219 13 -12 8 -56 18 -97 21 -41 3 -78 12
-82 18 -5 9 -62 14 -196 17 -103 2 -196 9 -207 14 -13 7 -21 7 -26 -1 -5 -9
-10 -8 -20 4 -18 22 -92 20 -113 -3 -10 -10 -17 -28 -17 -39 0 -26 -24 -46
-84 -69 -26 -10 -50 -26 -53 -34 -2 -8 -11 -28 -20 -43 -8 -16 -13 -38 -10
-49 3 -11 -4 -36 -15 -56 -12 -21 -26 -47 -33 -59 -7 -13 -15 -20 -18 -16 -4
3 -7 0 -7 -9 0 -8 -9 -23 -19 -32 -11 -10 -17 -24 -14 -31 2 -8 -5 -22 -16
-32 -12 -9 -21 -28 -21 -41 0 -15 -7 -26 -20 -29 -13 -4 -20 -14 -20 -30 0
-13 -11 -36 -25 -51 -14 -15 -26 -37 -26 -49 -1 -13 -2 -28 -3 -35 -1 -14 -38
-53 -58 -60 -7 -3 -20 -18 -28 -34 -8 -16 -21 -34 -29 -40 -9 -7 -12 -20 -7
-38 5 -22 2 -33 -16 -50 -46 -44 -58 -82 -58 -176 0 -49 5 -92 10 -95 6 -3 10
-19 10 -34 0 -16 9 -40 20 -54 11 -14 20 -34 20 -44 0 -21 27 -63 40 -63 11 0
7 19 -8 47 -16 29 -15 53 1 53 14 0 42 -48 38 -64 -1 -4 5 -13 14 -20 8 -6 18
-23 20 -39 4 -22 2 -27 -15 -27 -31 0 -24 -20 10 -26 31 -7 42 -24 15 -24 -19
0 -19 -4 5 -73 11 -31 20 -65 20 -75 0 -22 47 -114 63 -124 9 -6 13 -109 9
-243 -2 -43 -5 -56 -12 -45 -8 13 -10 12 -10 -2 0 -10 5 -18 10 -18 6 0 10 -5
10 -11 0 -5 -4 -8 -9 -5 -21 13 -40 -476 -20 -500 9 -11 9 -18 1 -26 -7 -7 -7
-17 0 -34 8 -17 8 -27 0 -36 -6 -8 -11 -67 -12 -138 -2 -79 -7 -132 -15 -145
-7 -11 -16 -36 -20 -55 -4 -19 -14 -45 -22 -58 -8 -13 -12 -30 -9 -38 3 -7 -2
-17 -10 -22 -11 -6 -17 -28 -20 -73 -8 -140 -13 -153 -86 -230 -14 -15 -18
-37 -18 -99 0 -44 4 -80 8 -80 5 0 14 -11 20 -25 13 -29 7 -86 -14 -129 -8
-16 -14 -38 -14 -49 0 -28 -40 -88 -53 -80 -6 4 -8 1 -5 -9 4 -8 -2 -19 -12
-26 -10 -6 -26 -37 -35 -68 -11 -39 -22 -58 -36 -61 -10 -3 -19 -9 -19 -13 0
-4 -11 -24 -25 -44 -13 -20 -22 -42 -19 -50 3 -8 0 -17 -7 -22 -8 -5 -10 -3
-5 7 4 8 0 5 -8 -5 -9 -11 -16 -29 -16 -40 0 -28 -15 -50 -28 -42 -13 8 -42
-44 -47 -85 -4 -35 -21 -59 -41 -59 -8 0 -14 -6 -14 -12 0 -7 -16 -32 -35 -56
-29 -37 -32 -47 -23 -67 8 -18 7 -28 -6 -46 -9 -13 -16 -33 -16 -46 0 -12 -5
-25 -10 -28 -6 -3 -10 -13 -10 -22 0 -9 14 3 31 26 17 24 33 41 35 38 3 -3
-10 -36 -29 -75 -34 -68 -34 -69 -11 -57 14 7 42 37 62 66 31 44 43 53 63 51
17 -2 20 0 11 6 -10 7 -1 12 30 17 l43 8 -48 11 -47 11 24 18 c17 13 22 25 18
39 -3 14 -1 19 6 14 6 -3 13 -2 17 3 3 6 29 8 58 5 38 -4 48 -3 37 5 -8 6 -31
11 -51 11 -22 0 -36 5 -36 13 0 8 11 11 35 9 30 -4 33 -2 28 15 -5 17 -1 19
39 19 55 -1 59 15 8 29 l-38 11 34 7 c18 4 58 7 87 7 30 0 54 5 54 10 0 6 -6
10 -14 10 -8 0 -17 3 -19 8 -3 4 27 8 66 9 91 2 186 12 206 22 9 4 30 8 48 9
53 3 106 25 109 45 3 21 14 36 14 20 0 -6 9 -9 20 -6 11 3 20 1 20 -5 0 -6 -8
-13 -17 -15 -10 -3 -4 -5 13 -6 36 -1 50 19 34 49 -15 28 -12 68 6 78 11 6 13
11 5 16 -21 13 -12 28 14 22 14 -4 25 -2 25 4 0 5 -7 10 -15 10 -9 0 -12 6 -8
18 13 38 58 130 88 177 74 118 171 302 214 405 6 14 15 32 20 40 5 8 18 35 29
60 11 25 34 63 51 84 33 41 111 190 111 211 0 7 11 37 24 66 14 30 31 71 40
92 14 34 18 37 36 27 24 -13 27 -2 3 15 -15 11 -14 14 5 33 12 12 22 27 22 32
0 6 6 10 13 10 6 0 13 12 13 26 2 32 11 41 26 26 18 -18 36 -15 48 8 10 18 9
19 -15 10 -22 -8 -27 -7 -34 13 -12 31 -3 46 28 53 52 11 71 23 64 40 -5 15
-7 15 -15 0 -13 -23 -23 -20 -26 8 -2 28 27 45 40 22 7 -12 12 -11 33 10 33
32 45 30 47 -8 1 -18 3 -49 5 -68 1 -19 4 -82 6 -140 2 -74 6 -105 15 -104 33
3 35 4 24 17 -7 8 -11 59 -10 133 1 65 -1 125 -6 132 -4 7 -4 21 -1 32 4 12 2
20 -5 20 -6 0 -9 4 -6 8 3 5 19 7 36 4 30 -4 42 11 18 22 -7 3 -5 5 6 3 11 -1
30 -22 45 -50 l26 -49 7 34 c8 34 4 80 -8 112 -8 21 13 38 38 30 11 -3 27 4
42 20 13 14 32 26 43 26 13 0 24 12 33 35 8 19 17 35 22 35 17 0 7 29 -12 35
-11 4 -18 11 -15 16 4 5 -3 9 -14 9 -12 0 -21 4 -21 9 0 5 -9 11 -21 14 -15 4
-19 11 -15 25 5 14 1 21 -14 25 -12 3 -20 13 -20 26 0 12 -6 21 -15 21 -8 0
-23 4 -33 9 -9 5 -25 12 -34 15 -22 6 -24 36 -3 36 7 0 18 -7 23 -16 8 -14 10
-14 14 4 5 17 0 22 -25 28 -31 6 -31 7 -11 23 11 9 19 22 16 29 -7 21 43 93
112 164 36 36 66 71 66 76 0 9 94 183 120 222 5 8 19 33 31 55 21 40 73 108
113 149 12 11 39 42 60 69 21 26 45 47 53 47 8 0 12 4 9 9 -10 15 6 43 20 37
10 -4 14 3 14 19 0 30 15 32 32 5 7 -11 18 -20 24 -20 9 0 113 -86 268 -220
70 -61 120 -121 168 -200 28 -47 70 -110 93 -140 56 -75 85 -133 74 -151 -14
-22 -11 -28 11 -22 11 3 20 0 20 -6 0 -6 -3 -11 -8 -11 -6 0 -20 -23 -50 -83
-9 -17 43 16 64 41 l20 24 16 -24 c9 -14 14 -35 11 -47 -5 -19 -7 -19 -26 -6
-12 8 -28 15 -37 15 -12 -1 -12 -3 3 -11 9 -5 17 -18 17 -29 0 -14 -6 -18 -24
-14 -17 3 -28 -3 -41 -22 -9 -14 -31 -32 -49 -39 -18 -8 -39 -21 -46 -30 -7
-9 -27 -23 -42 -31 -24 -12 -27 -18 -17 -30 15 -18 47 -17 79 1 19 11 21 14 8
15 -28 0 -21 20 7 20 15 0 25 6 25 15 0 8 6 12 14 9 8 -3 20 3 27 13 8 10 32
24 54 32 22 8 46 16 53 18 7 3 12 -3 12 -14 0 -11 6 -28 14 -39 9 -12 11 -23
5 -30 -12 -14 -1 -45 15 -42 16 4 76 -34 76 -48 0 -7 6 -15 13 -18 6 -3 -5 -5
-25 -3 -20 2 -34 -1 -32 -5 7 -12 -24 -10 -47 3 -15 7 -28 6 -51 -5 -34 -18
-88 -21 -88 -7 0 5 12 12 28 14 22 3 21 4 -10 6 -20 0 -38 7 -41 14 -3 9 -7 9
-20 -1 -8 -7 -21 -12 -29 -10 -21 5 -25 -14 -4 -26 14 -8 20 -8 23 1 3 9 12 7
31 -7 16 -12 51 -22 86 -25 63 -6 79 -12 71 -25 -7 -11 22 -40 41 -40 8 0 14
-9 14 -19 0 -11 5 -23 10 -26 6 -3 10 -1 10 6 0 7 9 2 20 -11 11 -13 20 -28
20 -34 0 -16 57 -39 80 -33 15 4 20 0 20 -14 0 -10 -4 -19 -10 -19 -24 0 -7
-15 18 -17 16 -1 35 -3 43 -5 8 -2 13 4 13 15 -2 19 11 23 21 7 3 -6 17 -7 31
-4 28 7 70 -24 85 -64 5 -12 13 -21 17 -20 5 2 35 -26 67 -62 31 -36 70 -79
86 -97 16 -17 29 -33 29 -36 0 -5 49 -63 120 -141 65 -72 114 -135 122 -157 3
-9 34 -58 67 -109 48 -73 61 -102 61 -132 0 -27 4 -38 15 -38 8 0 15 -4 15
-10 0 -5 -4 -10 -10 -10 -5 0 -10 -22 -10 -50 0 -27 5 -50 10 -50 14 0 13 -67
-2 -72 -14 -5 -13 -67 1 -81 6 -6 11 -19 11 -28 0 -15 14 -17 113 -18 110 -1
112 -1 132 -28 11 -15 20 -30 21 -33 0 -3 6 -18 13 -35 22 -52 43 -109 46
-125 1 -8 9 -31 16 -50 7 -19 12 -38 11 -42 -1 -5 3 -8 8 -8 6 0 10 -8 10 -19
0 -10 7 -24 15 -31 8 -7 15 -18 15 -25 0 -20 32 -43 37 -27 8 23 24 12 39 -25
8 -21 19 -47 24 -58 16 -35 40 -109 40 -127 0 -10 7 -15 18 -14 9 2 17 8 16
14 -2 29 -5 33 -16 26 -7 -4 -8 -3 -4 4 12 19 33 14 40 -10 5 -18 8 -20 15 -9
6 10 10 10 16 1 4 -7 3 -15 -3 -19 -12 -7 -9 -46 8 -97 12 -34 11 -38 -11 -55
-34 -26 -39 -24 -32 13 5 23 3 29 -6 24 -7 -5 -10 -14 -7 -22 3 -8 0 -14 -6
-14 -7 0 -6 -5 2 -15 7 -8 9 -15 4 -15 -5 0 -3 -4 5 -9 21 -13 6 -56 -25 -69
-14 -7 -29 -10 -33 -8 -4 3 -13 34 -21 70 -9 45 -18 66 -28 66 -11 0 -12 -3
-3 -14 6 -8 11 -18 10 -22 -2 -5 1 -39 5 -75 6 -45 4 -73 -3 -88 -16 -29 -31
-17 -31 25 0 21 -4 33 -10 29 -5 -3 -10 0 -10 7 0 7 -5 53 -10 102 -5 49 -7
93 -4 97 7 12 34 -1 34 -17 0 -8 5 -14 10 -14 6 0 10 14 10 30 0 17 -4 30 -10
30 -5 0 -10 9 -10 19 0 11 -6 22 -12 24 -10 4 -10 6 0 6 14 1 17 41 2 41 -5 0
-10 7 -10 15 0 13 -6 11 -30 -6 -16 -12 -31 -28 -34 -36 -3 -7 3 -62 13 -122
10 -60 17 -120 14 -133 -3 -14 2 -29 10 -37 13 -10 13 -15 1 -39 -9 -17 -12
-42 -9 -67 12 -92 13 -128 6 -144 -35 -73 -38 -76 -85 -79 -46 -3 -60 -17 -30
-29 8 -3 20 -1 27 6 16 16 30 14 24 -3 -3 -8 -1 -17 6 -20 7 -2 -5 -2 -27 0
-48 7 -46 -16 4 -29 20 -5 29 -12 24 -17 -12 -12 -84 7 -84 20 0 6 -12 11 -27
11 -18 1 -21 3 -10 6 9 2 15 9 12 14 -4 5 1 9 9 9 9 0 16 7 16 15 0 8 -9 15
-20 15 -24 0 -77 -31 -77 -45 0 -5 -7 -11 -16 -13 -11 -2 -17 3 -18 15 0 10
-3 13 -6 6 -6 -17 -50 -17 -56 0 -4 9 -6 9 -6 -1 -1 -7 -12 -17 -25 -22 l-25
-9 21 -43 c20 -40 20 -45 5 -85 -9 -24 -13 -43 -8 -43 12 0 51 45 51 58 0 7
14 12 30 12 20 0 30 5 30 15 0 8 5 15 10 15 6 0 10 -7 10 -15 0 -8 6 -12 14
-9 17 7 86 -22 86 -35 0 -6 6 -11 13 -11 7 0 13 -14 13 -32 1 -18 2 -42 2 -53
2 -56 -4 -95 -15 -95 -7 0 -13 -9 -13 -19 0 -10 -7 -22 -16 -25 -8 -3 -14 -14
-13 -23 3 -34 -1 -41 -31 -53 -31 -13 -37 -24 -20 -35 6 -3 10 -2 10 3 0 6 15
19 34 30 26 16 33 25 29 41 -3 14 0 23 12 27 9 4 21 18 26 31 5 13 13 21 19
18 5 -3 10 -1 10 4 0 6 -3 11 -7 11 -5 0 -7 37 -6 82 1 46 0 90 -4 98 -20 50
-6 90 32 90 13 0 27 5 30 10 3 6 11 10 17 10 7 0 9 -24 6 -70 -4 -50 -2 -70 6
-67 6 2 10 16 10 30 -1 17 4 27 12 27 10 0 13 13 12 42 -1 24 3 43 10 46 7 2
12 8 12 13 0 6 -4 7 -10 4 -14 -8 -13 28 1 42 6 6 11 32 11 57 1 26 5 49 10
52 15 9 9 34 -9 34 -24 0 -7 13 19 14 13 0 23 6 23 11 0 25 46 85 70 91 21 5
23 9 14 20 -7 8 -8 18 -4 22 4 4 10 1 12 -5 7 -21 31 -15 35 8 2 12 12 27 23
33 42 24 45 31 41 118 -6 123 -18 218 -27 218 -5 0 -9 10 -9 22 0 21 0 21 21
-3 l21 -24 -7 30 c-4 17 -13 47 -21 68 -27 72 -10 68 36 -8 25 -41 50 -71 50
-60 0 3 -11 33 -26 66 -31 76 -26 98 9 41 31 -48 45 -57 23 -14 -23 45 -56
131 -75 200 -27 92 0 61 38 -46 18 -48 43 -109 57 -137 14 -27 22 -41 18 -30
-4 11 -8 34 -10 50 -1 17 -15 66 -32 110 -16 44 -32 94 -36 110 -6 30 -6 30
14 -5 10 -19 27 -57 36 -85 22 -66 59 -138 78 -154 20 -17 20 -13 -3 35 -10
21 -22 50 -26 63 -13 42 18 19 43 -33 13 -26 25 -46 28 -44 2 3 -3 18 -11 34
-16 33 -8 79 14 79 10 0 13 18 13 70 0 72 -38 198 -97 320 -13 28 -31 69 -41
93 -10 24 -26 52 -36 64 -10 12 -18 29 -18 39 0 10 -16 48 -35 85 -19 36 -35
71 -35 78 0 8 -18 40 -40 72 -22 33 -40 67 -40 77 0 9 -37 57 -82 104 -46 48
-89 94 -97 103 -61 65 -120 223 -126 340 -3 41 -7 73 -21 138 -2 13 -9 20 -15
16 -6 -3 -5 4 3 15 11 18 11 23 -2 31 -10 6 -11 10 -2 10 6 0 12 7 12 15 0 8
-4 15 -10 15 -5 0 -10 9 -10 21 0 11 5 17 10 14 17 -10 11 65 -6 82 -16 16
-12 65 7 71 12 5 12 32 -1 32 -27 0 -8 31 59 94 25 22 61 58 80 80 20 21 53
57 74 79 20 23 37 51 37 62 0 12 3 25 7 29 4 3 8 16 10 27 6 37 47 124 64 137
10 7 16 21 14 32 -2 11 1 22 6 25 5 4 7 11 3 16 -3 6 6 21 21 35 15 14 25 28
21 31 -3 3 -2 11 3 17 5 6 14 31 21 56 7 25 17 48 22 51 6 4 12 22 14 40 5 41
33 129 46 146 6 7 7 20 4 29 -4 9 -2 22 3 28 5 6 14 38 21 71 7 33 17 63 24
67 8 6 7 8 -1 8 -7 0 -13 10 -13 23 0 12 -14 49 -30 82 -16 33 -30 74 -30 92
0 17 -4 35 -10 38 -5 3 -10 15 -10 25 0 11 -8 24 -17 29 -22 11 -48 62 -63
118 -6 23 -15 45 -20 48 -6 3 -10 17 -10 30 0 18 -4 23 -15 19 -8 -4 -15 -1
-15 5 0 6 6 11 13 11 9 0 9 2 0 8 -6 4 -25 41 -41 82 -16 41 -33 84 -37 95 -5
11 -9 22 -10 25 -11 46 -17 60 -25 60 -6 0 -10 7 -10 16 0 9 -11 37 -24 63
-13 25 -33 77 -45 114 -20 65 -39 97 -58 97 -4 0 -8 13 -9 29 -3 77 -242 348
-324 366 -16 4 -30 11 -30 16 0 13 -477 12 -485 -1z m582 -224 c10 -9 11 -46
1 -46 -6 0 -1 -9 11 -19 13 -11 24 -26 25 -33 6 -25 20 -53 35 -68 9 -8 23
-36 33 -61 16 -46 16 -47 -4 -41 -11 3 -23 13 -25 24 -3 10 -9 18 -12 18 -4 0
-18 24 -32 53 -13 28 -28 55 -32 58 -5 3 -9 10 -9 15 0 5 -5 8 -10 6 -6 -2
-19 5 -29 14 -15 13 -19 14 -19 3 0 -8 -10 -3 -25 14 -14 15 -32 27 -40 27 -8
0 -15 4 -15 9 0 5 -8 12 -17 14 -12 3 -10 5 7 6 14 1 31 5 39 10 13 9 109 6
118 -3z m-1022 -446 c8 7 16 7 19 1 3 -5 24 -7 47 -4 31 5 47 1 70 -16 23 -17
29 -19 29 -6 0 27 15 16 26 -20 12 -40 1 -57 -16 -25 -6 11 -15 18 -21 15 -5
-4 -12 1 -15 10 -4 10 -10 12 -18 6 -19 -16 -134 -14 -237 4 -23 4 -39 3 -43
-4 -12 -19 -35 -13 -29 8 4 16 17 21 62 26 31 4 61 8 66 9 6 2 18 -1 28 -6 12
-6 23 -6 32 2z m-725 -214 c6 -8 17 -13 24 -10 7 3 26 -2 42 -11 16 -8 45 -15
64 -15 19 0 44 -7 54 -15 23 -18 40 -20 30 -4 -4 8 0 8 15 0 16 -9 26 -9 42 0
17 8 23 8 29 -1 5 -7 15 -10 24 -7 8 3 18 3 20 -2 3 -4 28 -8 55 -9 28 0 59
-6 70 -11 11 -6 33 -11 50 -11 24 0 29 -3 25 -17 -4 -12 -3 -14 3 -6 5 6 32
11 63 11 30 -1 87 2 125 6 92 9 119 8 123 -4 2 -6 12 -10 23 -10 10 0 19 -4
19 -9 0 -5 12 -11 28 -14 34 -7 54 10 30 24 -10 6 -18 15 -18 21 0 11 44 -14
69 -40 9 -8 25 -12 41 -8 15 3 31 2 34 -2 4 -3 24 -8 44 -9 20 -1 38 -7 40
-13 2 -6 15 -7 29 -4 18 5 24 3 19 -5 -4 -6 -1 -11 6 -11 19 -1 58 -36 58 -52
0 -8 7 -23 15 -34 8 -10 15 -27 15 -37 0 -10 7 -20 15 -23 8 -4 15 -12 15 -18
0 -7 8 -21 19 -32 23 -25 44 -116 29 -125 -5 -4 -7 -16 -3 -28 5 -15 2 -21 -9
-21 -9 0 -16 -4 -16 -10 0 -5 -7 -10 -15 -10 -8 0 -15 4 -15 9 0 11 -46 20
-71 14 -16 -5 -18 -11 -13 -42 4 -20 11 -39 17 -42 5 -4 7 -16 4 -28 -3 -12
-1 -21 3 -21 5 0 12 -10 15 -22 9 -27 68 -87 109 -109 38 -20 42 -33 14 -47
-16 -8 -18 -11 -7 -11 9 -1 24 -12 33 -26 15 -23 15 -25 -5 -35 -11 -7 -23 -9
-27 -6 -3 3 0 6 7 6 7 0 11 6 9 13 -4 11 -21 16 -73 19 -11 1 -31 13 -44 27
-27 29 -51 36 -51 16 0 -8 -5 -17 -11 -21 -8 -4 -9 1 -4 16 6 19 4 22 -9 17
-9 -4 -16 -2 -16 3 0 6 -8 10 -17 10 -24 0 -105 40 -124 62 -20 22 -33 23 -52
4 -11 -12 -15 -11 -25 5 -10 16 -10 21 3 25 26 11 17 34 -13 34 -16 0 -37 9
-47 20 -16 18 -16 20 -2 20 24 0 21 15 -7 33 -13 9 -29 22 -37 29 -8 8 -22 17
-33 21 -12 5 -17 14 -13 27 3 13 0 20 -9 20 -8 0 -28 13 -43 29 -16 16 -32 27
-35 23 -4 -3 -18 6 -32 21 -16 17 -35 27 -54 27 -19 0 -28 4 -25 13 6 14 -38
37 -71 37 -13 0 -25 4 -29 9 -3 6 -26 20 -50 32 -25 12 -45 27 -45 32 0 5 -7
7 -15 4 -8 -4 -17 -2 -20 3 -4 6 -18 9 -33 9 -18 -1 -21 -3 -9 -6 12 -3 16
-10 13 -20 -4 -11 -2 -13 9 -9 9 3 24 -3 35 -14 11 -11 27 -20 37 -20 9 0 37
-12 62 -27 25 -15 56 -26 69 -24 12 1 22 -2 22 -8 0 -6 -9 -11 -20 -11 -15 0
-19 -5 -16 -22 4 -23 8 -25 39 -13 10 4 17 2 17 -5 0 -18 44 -50 51 -38 4 6
16 1 30 -13 14 -14 24 -18 27 -11 5 17 27 15 42 -3 11 -13 8 -15 -14 -15 -23
0 -26 -4 -23 -26 2 -14 10 -29 17 -34 8 -5 11 -12 8 -16 -4 -4 4 -15 17 -26
14 -11 23 -23 20 -28 -3 -4 4 -6 15 -3 11 3 21 1 21 -3 8 -51 7 -52 -33 -56
-35 -3 -43 1 -83 42 -23 25 -65 64 -91 86 -127 108 -203 172 -249 208 -73 58
-85 72 -85 101 0 18 -5 25 -20 25 -11 0 -41 21 -67 46 -27 25 -56 50 -65 55
-15 8 -16 5 -11 -28 l6 -36 -21 21 c-12 12 -22 29 -22 38 0 8 -4 13 -9 9 -11
-6 -34 29 -25 37 3 3 -6 8 -20 12 -17 4 -23 11 -20 21 8 19 -3 19 -22 0 -8 -8
-21 -12 -29 -8 -13 4 -12 11 6 39 11 19 16 34 10 34 -5 0 -12 -4 -15 -9 -3 -5
-15 -7 -26 -4 -13 4 -27 -3 -41 -18 -18 -22 -20 -22 -16 -4 3 11 8 29 12 40 7
16 6 18 -6 8 -14 -14 -49 -18 -49 -5 0 10 20 39 20 29 0 -5 10 -1 22 7 28 20
82 21 98 2z m-378 -13 c-8 -3 -5 -11 12 -24 31 -24 36 -24 36 4 1 20 2 20 11
4 7 -12 15 -15 22 -9 15 11 57 13 57 3 0 -12 -23 -31 -38 -31 -17 0 -122 -100
-122 -116 0 -5 -20 -29 -45 -52 -25 -23 -43 -42 -40 -42 18 0 -19 -39 -42 -45
-16 -3 -42 -13 -60 -22 -17 -8 -37 -15 -45 -17 -27 -4 -110 -49 -115 -62 -3
-9 -14 -12 -29 -8 -26 7 -27 5 -17 -22 6 -16 7 -16 14 2 7 18 8 18 15 -3 11
-40 83 -18 85 26 0 9 3 11 5 5 3 -7 14 -10 25 -7 14 4 18 11 14 24 -5 15 -1
19 20 19 14 0 28 6 31 13 5 13 38 17 49 6 8 -9 -53 -128 -80 -154 -13 -14 -26
-32 -29 -42 -3 -10 -30 -44 -60 -77 -39 -42 -59 -57 -71 -52 -26 9 -39 -4 -18
-19 14 -11 15 -16 6 -26 -15 -15 -47 -3 -40 15 3 8 -6 17 -28 23 -30 10 -32 9
-32 -14 0 -13 3 -26 8 -29 12 -7 11 -24 -1 -24 -6 0 -14 8 -17 18 -4 9 -14 22
-22 29 -13 9 -17 8 -21 -10 -3 -12 -12 -23 -20 -23 -8 -1 -19 -3 -25 -4 -5 -1
-26 -1 -46 0 -21 1 -40 -4 -44 -10 -5 -8 -15 -3 -30 16 -14 17 -26 24 -34 19
-9 -5 -10 -10 -2 -18 6 -6 11 -22 11 -35 0 -23 -3 -24 -43 -20 -49 6 -83 -11
-73 -37 7 -19 -30 -60 -38 -42 -2 7 -5 0 -5 -14 -1 -29 -23 -43 -51 -34 -11 3
-20 -1 -24 -11 -4 -11 -13 -14 -31 -10 -16 4 -27 1 -33 -10 -6 -11 -16 -14
-31 -9 -26 8 -27 21 -1 28 13 3 20 14 20 30 0 22 27 42 53 38 4 -1 7 5 7 13 0
8 12 17 28 19 26 4 26 4 5 12 -30 10 -31 51 -2 60 19 6 19 8 3 19 -11 9 -14
18 -8 27 5 8 9 29 9 47 1 17 8 38 16 45 24 19 50 67 44 77 -3 6 -1 10 4 10 6
0 11 -7 11 -15 0 -8 7 -15 15 -15 19 0 19 4 0 40 -15 28 -14 44 1 115 8 36 35
59 47 42 6 -9 10 -8 14 2 3 8 17 25 30 37 14 13 21 28 17 38 -4 11 2 19 22 26
16 5 37 15 47 21 15 8 22 7 31 -7 9 -12 15 -14 20 -6 4 7 16 12 28 12 17 0 19
4 14 25 -5 21 -3 25 15 25 15 0 19 -5 15 -15 -3 -9 0 -15 9 -15 8 0 15 4 15 9
0 17 32 42 46 37 9 -4 14 2 14 16 0 20 1 20 13 5 11 -16 14 -16 35 -2 12 9 22
23 22 32 0 14 2 14 19 -1 12 -11 21 -14 26 -7 3 6 1 11 -5 11 -6 0 -8 5 -4 12
5 8 11 6 19 -5 15 -21 45 -22 45 -3 0 18 24 26 76 28 22 0 44 5 51 10 6 5 20
9 30 8 39 -5 48 -1 29 13 -15 11 -10 12 31 12 26 0 51 3 54 8 4 5 12 2 20 -6
11 -11 16 -12 26 -1 17 17 16 24 -2 24 -16 0 -20 12 -8 23 3 4 11 7 17 6 6 0
5 -3 -2 -6z m1300 -893 c10 0 18 5 18 12 0 9 3 9 12 0 7 -7 22 -12 34 -12 13
0 26 -5 29 -10 4 -7 13 -6 26 1 21 11 21 11 79 -45 11 -11 20 -30 20 -43 0
-14 4 -21 10 -18 6 3 10 -1 10 -9 0 -9 5 -16 11 -16 18 0 48 -44 49 -71 0 -14
9 -35 21 -48 l21 -22 -22 -6 c-15 -4 -19 -10 -14 -22 4 -9 9 -28 12 -43 2 -16
10 -28 17 -28 11 0 22 -19 39 -73 3 -10 10 -15 16 -12 6 4 10 -7 10 -26 0 -30
2 -31 33 -27 42 7 57 1 57 -23 0 -16 5 -18 28 -13 15 4 30 11 33 16 3 5 12 2
19 -7 11 -13 8 -15 -19 -15 -39 0 -43 -27 -4 -32 26 -3 28 -8 39 -73 12 -69
12 -70 -14 -92 -36 -33 -74 -30 -95 7 -18 30 -18 30 8 40 14 6 32 10 40 10 8
0 17 5 20 10 8 13 -36 13 -70 0 -24 -9 -30 -6 -65 32 -22 24 -40 46 -40 51 0
4 -8 16 -17 26 -27 30 -38 45 -46 61 -9 20 -30 54 -38 60 -12 11 -109 140
-109 145 0 8 -73 116 -118 175 -19 25 -40 56 -46 70 -6 14 -16 31 -23 38 -17
18 -18 61 -1 44 7 -7 20 -12 30 -12z m-1879 -86 c13 -13 -70 -148 -136 -222
-37 -43 -81 -102 -97 -132 -16 -30 -39 -66 -52 -80 -13 -14 -34 -51 -47 -82
-13 -32 -30 -63 -37 -69 -8 -7 -13 -17 -10 -24 2 -6 -7 -34 -20 -61 -13 -27
-24 -55 -24 -63 0 -8 -12 -40 -27 -72 -19 -40 -33 -57 -43 -54 -33 10 -90 14
-94 6 -3 -4 -2 -17 1 -29 4 -16 13 -22 33 -22 15 0 33 -7 40 -15 11 -13 5 -14
-46 -9 -33 3 -81 7 -107 8 -40 1 -49 4 -53 23 -3 12 -3 27 2 34 10 16 11 72 3
144 -3 33 -3 62 1 65 3 3 10 13 13 24 4 11 13 16 22 12 8 -3 15 -1 15 4 0 6
-7 10 -16 10 -9 0 -14 6 -12 13 8 22 39 19 59 -5 10 -12 30 -34 42 -48 13 -14
36 -42 52 -63 30 -40 52 -44 47 -9 -2 12 1 22 6 22 5 0 5 18 -1 45 -6 24 -14
42 -18 39 -13 -7 -23 18 -24 58 0 28 -7 44 -25 61 -27 24 -53 80 -52 112 1 11
-6 27 -15 37 -9 10 -13 21 -10 25 4 3 2 12 -3 18 -8 10 1 18 35 31 37 15 45
23 41 39 -4 15 2 24 24 33 16 7 32 21 35 31 3 10 16 24 30 31 13 7 23 16 22
19 -1 3 3 7 8 9 6 2 19 11 30 21 29 26 93 45 108 32 7 -5 19 -8 27 -7 65 14
82 20 86 30 3 7 20 10 42 8 21 -2 50 3 67 12 31 16 67 21 78 10z m-903 -104
c5 0 10 -11 10 -25 0 -18 5 -25 20 -25 18 0 26 -17 21 -44 -1 -5 3 -12 8 -16
12 -7 32 -100 25 -112 -9 -14 -34 -9 -34 7 0 16 -36 39 -49 30 -13 -8 -19 15
-14 51 4 26 1 32 -18 38 -23 7 -23 8 -4 16 l20 9 -20 1 c-15 1 -16 3 -5 7 30
12 42 53 15 53 -8 0 -15 8 -15 18 0 28 13 36 22 12 4 -11 12 -20 18 -20z
m4024 -146 c23 -9 20 -22 -6 -26 -27 -4 -36 -28 -11 -29 14 0 12 -3 -7 -11
-15 -6 -20 -12 -12 -15 19 -7 14 -29 -12 -47 -13 -8 -34 -36 -47 -61 -12 -25
-26 -45 -31 -45 -4 0 -8 -8 -8 -17 0 -20 -28 -53 -45 -53 -6 0 -18 -12 -25
-27 -11 -23 -14 -25 -17 -10 -3 9 -9 15 -14 12 -5 -4 -9 10 -9 29 0 22 5 36
13 37 10 0 10 2 0 6 -15 6 -18 63 -3 63 6 0 10 7 10 15 0 8 -4 15 -10 15 -5 0
-10 9 -10 20 0 17 28 33 62 35 3 0 18 12 32 28 19 20 34 27 63 27 33 0 40 4
51 30 15 33 14 32 36 24z m-2825 -654 c30 -27 59 -51 64 -53 21 -7 -5 -26 -41
-32 -20 -4 -51 -13 -69 -21 -17 -8 -41 -14 -53 -14 -19 0 -21 4 -15 28 3 15
13 34 21 43 8 8 14 23 14 32 0 9 5 17 10 17 14 0 12 37 -2 43 -9 4 -8 6 2 6 8
0 39 -22 69 -49z m-842 -69 c26 -1 23 -19 -14 -67 l-23 -31 -53 12 c-89 22
-106 31 -100 55 9 36 39 40 190 31z m-267 -31 c22 -22 26 -40 9 -40 -14 0 -43
-29 -36 -36 3 -3 14 -1 25 5 19 10 20 8 17 -21 -3 -17 -10 -35 -17 -40 -10 -6
-10 -10 1 -17 17 -11 7 -59 -15 -68 -12 -5 -12 -7 3 -19 17 -12 17 -14 -2 -28
-20 -15 -20 -15 3 -16 23 0 30 -14 12 -25 -5 -3 -10 -17 -10 -30 0 -13 5 -27
10 -30 16 -10 12 -35 -6 -35 -11 0 -14 -6 -9 -21 13 -40 14 -152 2 -173 -6
-12 -10 -25 -9 -29 3 -11 -37 -67 -48 -67 -12 0 -2 74 10 78 6 2 10 8 10 13 0
6 -4 8 -9 4 -5 -3 -11 29 -13 74 -3 88 -1 114 12 106 15 -9 21 14 9 36 -8 16
-8 20 0 14 14 -8 6 185 -7 194 -5 3 -12 14 -15 25 -6 15 -3 17 13 13 16 -4 18
-2 11 10 -4 9 -6 24 -4 34 3 11 0 19 -6 19 -6 0 -11 9 -11 20 0 11 6 19 13 18
6 -2 11 3 9 11 -4 19 5 41 18 41 5 0 19 -9 30 -20z"/>
<path d="M3846 4600 c-23 -28 -36 -71 -36 -120 0 -28 3 -50 8 -50 4 0 18 -25
31 -55 26 -57 41 -66 67 -40 16 16 11 35 -10 35 -21 0 -50 39 -49 65 2 57 3
60 11 48 5 -8 8 2 8 23 0 63 48 66 86 5 13 -20 22 -41 20 -48 -1 -6 3 -15 9
-19 9 -5 11 3 6 29 -4 28 -3 35 9 30 8 -3 14 0 14 6 0 6 -7 11 -16 11 -9 0
-18 9 -21 20 -3 11 -9 20 -14 20 -5 0 -4 11 1 25 5 14 6 25 2 26 -72 6 -115 2
-126 -11z"/>
<path d="M3610 4599 c0 -7 -11 -9 -26 -6 -22 4 -25 1 -21 -15 3 -11 3 -17 0
-14 -9 9 -32 -26 -33 -49 0 -11 -7 -30 -15 -42 -10 -15 -12 -24 -4 -28 7 -5 4
-13 -7 -26 -10 -11 -12 -19 -6 -19 16 0 15 -15 -1 -32 -16 -16 -27 -44 -20
-51 9 -9 43 27 43 45 0 10 5 18 10 18 6 0 10 7 10 15 0 9 11 20 25 25 28 11
31 20 13 38 -7 7 -8 12 -3 12 5 0 0 7 -11 15 -18 14 -18 14 9 15 17 0 27 5 27
15 0 8 5 15 11 15 6 0 8 -7 5 -16 -3 -9 -3 -21 1 -27 4 -6 8 -25 10 -42 2 -16
10 -35 18 -41 16 -12 21 -79 6 -88 -5 -3 -12 -21 -15 -39 -11 -60 -72 -98
-113 -72 -13 9 -28 13 -33 10 -13 -8 -13 -45 0 -45 5 0 7 7 4 15 -8 19 10 19
26 0 14 -16 66 -10 91 11 8 8 21 14 27 14 6 0 14 12 18 28 4 15 14 33 22 40
22 17 26 256 5 273 -7 6 -13 17 -13 24 0 6 -11 17 -25 23 -32 15 -35 15 -35 1z"/>
<path d="M3360 4358 c0 -17 -3 -20 -9 -9 -7 11 -10 10 -13 -5 -3 -10 2 -27 10
-36 10 -12 11 -18 4 -18 -20 0 -13 -21 14 -47 21 -19 24 -26 14 -38 -8 -9 -8
-15 -2 -15 18 0 34 -61 20 -78 -11 -13 -10 -14 10 -8 17 6 21 4 16 -8 -3 -9
-15 -14 -27 -13 -19 2 -20 -4 -22 -83 0 -47 -4 -91 -8 -97 -4 -6 -3 -14 3 -18
5 -3 10 -22 10 -41 0 -33 13 -46 23 -21 4 10 6 10 6 0 1 -7 6 -13 11 -13 14 0
12 20 -5 53 -11 21 -12 34 -4 48 12 23 4 40 -16 32 -8 -3 -15 0 -15 7 0 6 4 9
9 5 14 -8 26 16 22 44 -2 16 1 22 11 19 7 -3 12 -15 11 -27 -2 -14 3 -21 15
-21 19 0 44 -44 36 -65 -3 -8 4 -20 15 -27 12 -7 21 -18 21 -25 0 -7 4 -13 8
-13 5 0 19 -9 32 -20 13 -11 27 -20 32 -20 4 0 8 9 8 20 0 11 -4 20 -10 20
-16 0 -60 53 -86 103 -13 26 -30 47 -37 47 -8 0 -9 2 -1 8 13 8 7 72 -7 72 -5
0 -9 7 -9 15 0 47 75 -15 86 -71 3 -19 10 -37 16 -40 5 -3 5 -11 -2 -19 -8 -9
-6 -18 7 -31 17 -16 18 -16 21 -1 2 9 8 17 13 17 12 0 11 -7 -2 -31 -9 -17 -3
-32 36 -90 30 -43 46 -76 42 -88 -2 -10 -1 -25 4 -32 8 -11 12 -11 23 4 12 15
14 15 19 3 4 -9 2 -18 -4 -22 -7 -4 -6 -10 1 -19 8 -10 8 -15 -1 -21 -7 -4
-15 -2 -17 4 -2 7 -8 10 -13 6 -5 -3 -9 0 -9 6 0 6 -4 8 -10 5 -6 -4 -5 -11 3
-19 6 -8 15 -12 19 -10 4 2 9 0 12 -5 3 -5 22 -12 41 -15 41 -8 45 -21 10 -30
-13 -3 -31 -20 -40 -36 -16 -31 -20 -54 -5 -30 5 8 24 16 42 18 32 3 32 3 13
-12 -19 -16 -19 -16 10 -10 44 10 50 16 30 30 -17 13 -17 14 -1 20 10 4 21 2
25 -4 8 -14 51 21 51 42 0 9 5 16 10 16 6 0 10 -9 10 -21 0 -12 5 -19 13 -16
6 2 11 10 10 16 -2 6 2 11 7 11 6 0 10 -4 10 -10 0 -5 9 -10 20 -10 11 0 20 5
20 10 0 6 5 10 10 10 16 0 12 -30 -5 -36 -8 -4 -15 -10 -15 -15 0 -4 7 -6 15
-3 11 5 13 2 9 -10 -5 -13 1 -16 35 -16 23 0 41 5 41 10 0 6 4 10 10 10 5 0 9
-5 7 -12 -2 -14 30 -18 58 -7 17 7 16 8 -7 8 -18 1 -28 6 -28 16 0 8 -4 15
-10 15 -5 0 -10 7 -10 15 0 9 -8 18 -17 22 -10 3 -25 12 -33 18 -8 7 -31 15
-50 17 -19 3 -56 13 -82 24 l-47 18 -22 -28 c-18 -23 -26 -26 -53 -20 -35 7
-48 21 -42 46 2 10 0 21 -5 24 -5 3 -7 9 -4 14 3 5 -5 11 -17 13 -20 4 -19 4
5 6 25 1 41 29 17 32 -5 1 -14 3 -20 4 -5 1 -14 3 -19 4 -5 0 0 18 11 39 10
20 23 36 28 34 13 -3 13 14 0 36 -5 9 -15 30 -20 45 -6 16 -19 31 -30 34 -11
3 -20 14 -20 24 0 20 -25 25 -49 10 -12 -8 -12 -12 2 -26 10 -9 17 -24 17 -32
0 -9 7 -25 17 -35 15 -17 15 -18 -1 -18 -10 0 -25 20 -41 56 -14 32 -31 62
-39 68 -14 11 -33 76 -22 76 3 0 17 -5 31 -12 20 -9 26 -18 22 -35 -3 -15 1
-23 10 -23 20 0 46 27 33 35 -6 3 -17 20 -26 37 -15 28 -14 31 5 49 11 10 27
19 35 19 8 0 17 4 20 8 4 7 -18 8 -61 3 -6 0 -13 -8 -15 -18 -4 -23 -88 -31
-88 -9 0 20 -16 21 -23 2 -10 -25 -44 -7 -51 26 -3 16 -15 42 -26 58 -11 15
-20 33 -20 39 0 6 -5 11 -12 11 -6 0 -3 7 8 15 19 14 19 15 -3 21 -18 5 -21
10 -13 24 13 24 13 40 0 40 -5 0 -10 -10 -10 -22z"/>
<path d="M4030 4114 c0 -9 -8 -26 -18 -39 -10 -12 -24 -42 -31 -66 -25 -85
-64 -194 -72 -203 -4 -5 -2 -15 6 -22 16 -16 59 -19 50 -4 -3 6 -3 20 0 31 5
16 9 18 15 9 4 -7 2 -29 -5 -49 l-12 -36 31 1 c22 1 32 6 35 20 2 10 10 28 18
41 8 12 11 28 7 34 -4 8 -3 9 4 5 8 -5 10 2 6 24 -4 18 -2 30 4 30 16 0 19
-84 6 -160 -6 -36 -9 -72 -6 -82 5 -20 43 -31 57 -17 6 7 7 10 0 9 -28 -6 -38
0 -25 15 7 8 9 15 4 15 -4 0 -3 5 4 12 9 9 16 8 30 -5 16 -15 18 -14 31 14 7
17 23 34 35 39 11 5 17 9 11 9 -5 1 -11 25 -11 54 -1 28 0 41 3 27 3 -14 11
-29 19 -33 8 -4 14 -16 14 -26 0 -10 3 -21 7 -25 4 -4 9 -34 10 -67 3 -63 18
-108 26 -79 2 8 12 38 21 65 21 64 20 91 -1 104 -12 7 -14 10 -4 11 11 0 11 3
1 15 -10 12 -10 15 4 15 9 0 16 -8 16 -20 0 -10 8 -24 19 -29 13 -7 21 -27 25
-63 18 -132 22 -152 33 -155 6 -2 14 5 18 16 9 29 -5 112 -17 105 -7 -4 -9 7
-6 32 6 46 -30 151 -55 166 -10 5 -17 15 -17 23 0 8 -9 20 -20 27 -11 7 -20
18 -20 25 0 7 -6 13 -14 13 -8 0 -24 11 -37 24 -13 13 -28 22 -35 19 -15 -5
-40 30 -49 70 -4 15 -13 27 -20 27 -7 0 -16 6 -18 13 -3 7 -6 5 -6 -5 -1 -9
-6 -41 -13 -70 -11 -52 -11 -52 -20 -23 -5 17 -10 50 -12 75 -2 25 -5 48 -5
53 -2 14 -21 7 -21 -9z"/>
<path d="M4490 3901 c0 -10 -3 -27 -6 -36 -5 -11 0 -18 15 -22 23 -6 28 -28 8
-36 -14 -5 -14 -34 -3 -182 3 -33 5 -64 6 -68 0 -7 59 0 68 8 2 2 -4 20 -14
41 -13 27 -15 39 -6 42 8 2 8 8 -3 19 -15 15 -12 33 5 33 16 0 40 -57 40 -94
0 -30 4 -37 25 -42 14 -4 29 -3 33 0 3 4 -3 9 -13 12 -18 4 -20 13 -19 72 1
57 -2 72 -24 100 -25 33 -26 33 -34 12 -13 -36 -28 -12 -28 45 0 34 -5 59 -15
69 -8 8 -15 19 -15 25 0 5 -4 13 -10 16 -5 3 -10 -3 -10 -14z"/>
<path d="M3032 3688 c-7 -7 -12 -17 -12 -23 0 -5 -9 -16 -20 -23 -11 -7 -20
-23 -20 -37 0 -29 -16 -34 -23 -7 -3 12 -5 10 -7 -8 -1 -14 -2 -31 -1 -38 1
-8 -2 -19 -7 -25 -6 -7 -14 -27 -19 -45 -15 -60 -32 -40 -34 41 0 10 -8 17
-20 17 -11 0 -22 7 -25 15 -10 24 -21 17 -23 -12 -8 -132 -9 -161 -5 -185 6
-30 29 -36 62 -19 9 6 29 12 45 16 16 3 27 12 27 22 0 15 2 14 15 -3 12 -16
16 -17 24 -5 8 13 8 21 -6 61 -9 26 -2 142 10 163 7 11 21 31 32 45 35 42 41
84 7 50z"/>
<path d="M3565 3621 c-39 -21 -53 -40 -48 -62 4 -15 -1 -17 -33 -14 -39 3 -82
-13 -112 -43 -10 -10 -32 -28 -50 -40 -18 -13 -29 -28 -26 -34 4 -6 0 -14 -7
-19 -27 -17 7 -9 46 11 22 11 45 20 52 20 8 0 16 6 19 14 3 8 13 12 25 9 11
-3 19 0 19 7 0 6 10 10 23 9 14 -2 32 7 50 25 27 27 65 32 60 8 -2 -7 4 -12
12 -12 8 0 15 5 15 10 0 6 10 8 23 5 28 -6 64 37 47 57 -5 7 -18 23 -28 35
-23 29 -51 34 -87 14z"/>
<path d="M5524 3043 c-4 -21 -10 -45 -15 -54 -6 -12 -2 -21 14 -32 20 -13 20
-16 7 -32 -11 -13 -14 -38 -12 -92 2 -60 0 -73 -13 -73 -8 0 -15 -5 -15 -11 0
-8 14 -10 43 -5 35 5 39 4 22 -6 -33 -20 -43 -33 -53 -74 -9 -35 -11 -71 -17
-229 -1 -27 -5 -58 -9 -68 -5 -9 -4 -23 1 -30 11 -14 10 -66 -5 -211 -6 -55
-9 -103 -6 -107 2 -4 0 -10 -6 -14 -5 -3 -10 -23 -10 -43 0 -28 -3 -33 -10
-22 -8 12 -10 9 -10 -11 0 -14 -9 -51 -19 -82 -11 -32 -17 -57 -14 -57 3 0 1
-6 -4 -12 -5 -7 -18 -48 -28 -92 -11 -48 -25 -85 -37 -95 -11 -9 -26 -28 -34
-43 -8 -16 -21 -28 -30 -28 -9 0 -12 -5 -8 -11 5 -8 -1 -10 -19 -7 -17 3 -24
1 -20 -5 4 -6 0 -8 -11 -4 -10 4 -15 3 -11 -4 4 -5 15 -7 25 -4 15 5 17 2 13
-14 -10 -39 -68 -33 -78 7 -4 15 -11 33 -17 39 -14 17 -35 16 -35 -1 0 -8 5
-14 11 -13 7 1 11 -16 11 -43 0 -31 -4 -44 -12 -42 -8 1 -13 -8 -13 -24 0 -16
-5 -24 -12 -22 -16 6 -27 49 -17 69 4 8 3 22 -2 30 -13 21 -11 49 6 65 20 20
20 55 1 48 -8 -3 -13 -11 -10 -19 3 -7 -3 -16 -13 -20 -34 -15 -44 -14 -39 3
3 9 2 23 -3 30 -7 11 -9 10 -14 -3 -4 -9 -3 -13 3 -10 6 3 10 2 10 -3 0 -5 -8
-12 -19 -15 -15 -3 -18 -12 -15 -43 1 -22 -2 -42 -9 -46 -6 -4 -8 -10 -4 -14
4 -4 13 1 21 11 18 25 46 13 46 -20 0 -14 -4 -25 -10 -25 -5 0 -10 5 -10 10 0
6 -9 10 -21 10 -14 0 -19 -5 -16 -14 3 -7 -7 -22 -22 -34 l-28 -20 -13 51 c-7
29 -17 55 -22 58 -6 4 -11 18 -11 33 -1 14 -5 26 -9 26 -5 0 -8 17 -8 38 0 20
-5 44 -10 52 -10 15 -13 0 -14 -72 0 -16 -2 -28 -4 -28 -8 0 -30 28 -33 43 -3
12 -8 14 -19 6 -11 -8 -12 -12 -2 -16 6 -2 12 -12 12 -21 0 -9 9 -30 19 -46
15 -22 17 -35 10 -54 -6 -14 -8 -31 -5 -39 3 -7 1 -13 -4 -13 -6 0 -10 -7 -10
-16 0 -11 6 -15 20 -11 14 3 20 0 20 -10 0 -10 -6 -14 -19 -10 -25 6 -51 -22
-56 -59 -2 -16 -5 -29 -6 -29 -1 0 -3 -17 -4 -37 -2 -40 -21 -72 -37 -62 -5 4
-7 16 -3 28 3 11 8 57 10 101 1 44 1 70 -2 58 -2 -13 -9 -23 -15 -23 -5 0 -8
7 -4 15 3 8 1 15 -4 15 -14 0 -21 -18 -10 -25 6 -4 8 -16 5 -27 -4 -12 0 -27
11 -39 10 -11 12 -19 6 -19 -7 0 -12 5 -12 11 0 5 -4 8 -8 5 -5 -3 -6 -27 -2
-53 7 -46 -1 -92 -17 -94 -62 -9 -72 -6 -77 20 -6 32 -1 109 10 135 5 13 3 21
-4 24 -7 2 -12 11 -12 20 0 15 2 15 10 2 8 -11 9 -8 4 12 -3 15 -1 41 4 58 9
23 8 33 -4 45 -25 25 -35 18 -29 -19 6 -28 4 -35 -12 -39 -16 -4 -16 -5 0 -6
21 -1 23 -31 1 -31 -10 0 -15 -8 -13 -22 2 -13 -3 -34 -10 -47 -12 -21 -11
-26 3 -37 15 -10 15 -12 1 -18 -23 -8 -18 -28 5 -21 28 9 25 -9 -5 -25 -19
-10 -25 -21 -25 -46 0 -18 -5 -36 -10 -39 -15 -9 -25 25 -13 44 5 9 7 25 3 36
-4 11 -3 25 2 32 5 7 5 14 -2 18 -5 3 -7 18 -4 32 5 19 3 24 -7 21 -17 -5 -25
-48 -10 -48 23 0 10 -19 -17 -25 -36 -7 -40 -45 -5 -45 13 0 23 -4 23 -10 0
-5 -4 -10 -10 -10 -5 0 -7 -6 -4 -14 8 -21 -22 -45 -48 -38 -12 3 -17 7 -10
10 17 5 15 29 -4 36 -21 8 -24 4 -27 -25 -4 -41 -26 -68 -64 -78 -20 -6 -40
-8 -46 -4 -5 3 -13 -1 -18 -8 -13 -21 -12 7 2 33 6 11 8 22 5 25 -3 3 -9 -3
-13 -13 -3 -10 -16 -28 -29 -40 -22 -21 -24 -67 -3 -80 12 -7 11 -24 -1 -24
-5 0 -12 11 -16 25 -5 21 -11 24 -28 19 -11 -3 -25 -10 -31 -15 -18 -17 -44
-9 -47 13 -3 22 -7 23 -122 25 -66 1 -122 6 -125 12 -3 5 -17 11 -31 12 -38 6
-38 36 0 44 36 8 31 20 -8 20 -19 0 -28 6 -30 20 -7 39 -24 41 -21 3 2 -20 0
-40 -4 -44 -4 -4 -7 -16 -7 -26 0 -11 -7 -18 -20 -18 -11 0 -20 5 -20 10 0 15
-34 12 -56 -5 -19 -15 -19 -15 0 -30 19 -14 19 -15 -7 -15 -23 0 -27 4 -27 27
0 26 -1 26 -15 7 -13 -17 -14 -17 -15 -1 0 10 -8 17 -20 17 -13 0 -20 7 -20
19 0 11 -4 22 -10 26 -10 6 -2 36 14 48 8 6 7 10 -1 14 -7 2 -13 15 -13 28 0
13 -7 50 -16 82 -9 32 -16 70 -16 85 1 15 -3 30 -7 33 -15 9 -20 -22 -10 -57
5 -18 9 -49 9 -69 0 -20 3 -39 7 -43 12 -12 14 -49 4 -78 -6 -17 -6 -30 0 -33
15 -10 10 -35 -6 -35 -8 0 -15 6 -15 14 0 8 -5 18 -12 22 -8 5 -9 2 -5 -9 8
-21 -7 -22 -27 -1 -21 20 -21 48 -1 40 8 -3 15 -1 15 4 0 6 -8 10 -18 10 -14
0 -24 15 -38 60 -10 33 -22 60 -27 60 -4 0 -5 20 -3 45 3 36 0 50 -15 64 -10
9 -25 35 -33 57 -12 33 -15 35 -15 14 -1 -14 6 -36 15 -49 14 -19 14 -25 3
-32 -9 -6 -10 -12 -4 -16 6 -5 12 -19 12 -32 1 -13 7 -27 14 -31 6 -5 8 -13 4
-20 -5 -9 -4 -11 3 -6 7 4 12 1 12 -8 0 -8 -6 -16 -12 -19 -9 -3 -8 -9 6 -19
23 -18 33 -128 11 -128 -14 0 -95 130 -95 154 0 8 -4 17 -9 21 -5 3 -12 19
-16 35 -4 17 -10 30 -14 30 -5 0 -13 30 -19 67 -10 60 -32 110 -32 72 0 -35
40 -192 52 -207 8 -9 23 -36 34 -59 10 -24 22 -43 27 -43 4 0 7 -9 7 -20 0
-11 9 -35 20 -54 20 -37 11 -60 -12 -28 -8 11 -26 19 -48 19 -19 1 -40 1 -46
2 -12 1 -29 50 -40 116 -4 22 -8 46 -10 52 -1 7 2 15 7 19 20 12 7 21 -31 21
-27 0 -40 -4 -40 -13 0 -7 6 -11 13 -9 6 3 17 1 23 -3 12 -8 34 -130 27 -149
-5 -14 -53 -7 -63 8 -3 5 -19 7 -35 6 -28 -2 -30 0 -31 36 0 41 -33 81 -57 71
-10 -3 -16 5 -21 26 -7 38 -28 30 -22 -8 2 -15 5 -31 5 -35 1 -4 8 -7 17 -5
23 4 29 -19 7 -25 -17 -4 -17 -5 0 -6 18 -1 25 -21 7 -21 -5 0 -10 -8 -11 -17
0 -10 -3 -13 -6 -6 -2 7 -19 15 -37 19 -30 5 -34 10 -39 48 -3 23 -3 53 0 65
4 14 1 26 -8 31 -11 7 -11 13 -1 32 8 14 11 38 7 58 -10 51 -11 110 -3 110 4
0 5 6 2 13 -2 7 0 24 5 38 6 16 10 18 10 7 1 -9 7 -19 14 -21 9 -4 8 -8 -3
-16 -13 -10 -13 -12 0 -22 11 -8 12 -12 3 -16 -14 -5 -18 -53 -5 -53 4 0 14
-27 21 -60 8 -33 18 -60 23 -60 6 0 8 12 4 28 -23 95 -27 127 -17 148 5 12 7
25 3 28 -12 13 -10 111 4 137 11 22 11 29 -1 45 -18 24 -19 44 -2 44 9 0 12
11 9 36 -5 44 -18 28 -28 -32 -3 -22 -11 -42 -18 -46 -8 -5 -7 -13 3 -30 10
-16 10 -23 2 -26 -6 -2 -11 -14 -11 -28 0 -17 -7 -25 -26 -30 -25 -6 -26 -9
-20 -57 5 -34 3 -52 -4 -57 -9 -6 -9 -13 -1 -28 15 -28 14 -38 -5 -57 -20 -19
-25 -117 -9 -149 12 -22 11 -23 -31 -22 -24 1 -44 4 -44 8 0 4 -10 10 -22 14
-28 8 -38 22 -38 53 0 13 -3 21 -7 18 -9 -9 -33 49 -33 79 0 13 -5 33 -10 44
-6 11 -15 29 -20 40 -8 16 -7 20 5 20 18 0 19 23 3 53 -6 12 -11 37 -9 55 1
17 -3 32 -9 32 -5 0 -10 5 -10 10 0 6 7 10 15 10 11 0 13 8 9 30 -4 19 -2 30
5 30 6 0 11 5 11 11 0 8 -4 8 -14 0 -7 -6 -21 -9 -30 -5 -19 7 -21 -8 -5 -39
9 -16 9 -22 0 -25 -6 -2 -11 -14 -11 -27 0 -13 -6 -26 -12 -28 -8 -3 -7 -6 4
-6 9 -1 20 -11 24 -23 3 -13 13 -31 22 -40 14 -17 13 -18 -8 -18 -12 0 -28 7
-34 15 -9 13 -13 11 -23 -10 -11 -24 -10 -26 18 -32 16 -3 30 -9 30 -14 1 -5
2 -19 2 -31 1 -13 5 -26 10 -29 6 -4 10 -20 11 -35 1 -16 5 -35 9 -42 9 -13 1
-32 -14 -32 -5 0 -28 18 -51 40 -23 22 -50 43 -60 46 -12 3 -17 12 -14 22 15
50 17 70 7 76 -6 4 -11 19 -11 32 0 16 -5 24 -12 22 -8 -3 -12 -18 -10 -41 4
-38 -10 -44 -42 -18 -13 11 -17 11 -22 -2 -3 -9 13 -34 45 -66 27 -27 53 -60
56 -73 4 -13 11 -28 16 -34 4 -5 10 -32 13 -58 2 -27 9 -53 16 -60 6 -6 11 -6
10 -1 -6 27 1 75 10 75 6 0 19 -8 29 -17 39 -35 50 -43 66 -43 9 0 29 -10 44
-21 16 -12 34 -18 41 -14 7 4 14 -1 17 -14 4 -17 8 -19 19 -10 10 8 14 8 14 0
0 -6 7 -11 15 -11 17 0 20 -16 4 -25 -6 -5 -4 -12 7 -20 10 -7 18 -25 19 -41
2 -41 14 -74 27 -74 7 0 8 14 5 38 -9 51 1 82 25 82 14 0 18 -5 14 -15 -3 -10
1 -15 12 -15 30 0 51 -23 54 -58 1 -19 6 -36 10 -38 4 -3 8 -16 8 -30 0 -13 5
-24 10 -24 6 0 10 -19 10 -41 0 -36 2 -40 15 -29 17 14 20 46 5 55 -5 3 -10
19 -10 35 0 16 5 32 10 35 17 10 12 48 -5 41 -18 -7 -21 34 -4 65 15 28 30 14
19 -17 -12 -31 -12 -34 -1 -34 5 0 12 8 15 18 5 16 26 19 89 13 16 -2 5 -31
-19 -50 -18 -14 -21 -21 -12 -21 9 0 21 7 28 15 28 33 55 3 31 -34 -6 -10 -5
-22 5 -35 8 -11 14 -28 14 -38 0 -20 8 -22 30 -8 13 8 12 10 -2 10 -12 0 -18
8 -18 21 0 11 3 19 8 17 4 -2 29 -14 55 -27 37 -17 51 -31 63 -62 9 -21 19
-39 23 -39 12 0 29 49 18 53 -13 4 -1 37 14 37 6 0 9 -6 6 -14 -4 -9 7 -19 31
-28 35 -14 37 -18 40 -61 1 -32 -2 -47 -10 -47 -8 0 -5 -5 5 -11 9 -5 17 -19
17 -29 0 -10 5 -22 10 -25 7 -4 9 14 6 54 -2 34 0 61 5 61 11 0 12 40 1 57 -4
6 -14 11 -22 11 -51 -3 -69 16 -75 76 -3 36 22 60 50 50 21 -9 19 -22 -5 -26
-28 -4 -21 -23 8 -20 25 4 31 -24 10 -47 -11 -11 -10 -13 4 -8 24 8 48 -18 48
-52 0 -40 10 -44 37 -15 27 29 28 34 9 34 -16 0 -29 41 -20 64 3 9 11 16 18
16 17 0 39 -81 31 -113 -6 -21 -4 -27 9 -27 9 0 16 -8 16 -20 0 -11 5 -20 10
-20 12 0 12 54 0 85 -4 11 -15 37 -24 58 -21 49 -20 57 4 57 11 0 20 5 20 10
0 6 8 10 18 10 14 0 14 -2 3 -9 -11 -7 -8 -9 10 -9 64 -1 79 -5 84 -23 4 -10
3 -23 0 -29 -3 -5 -3 -10 2 -10 4 0 14 -12 20 -27 10 -21 10 -28 0 -35 -9 -6
-9 -8 1 -8 6 0 12 -11 12 -25 0 -25 14 -33 25 -15 11 18 26 10 25 -12 -3 -37
-1 -39 18 -20 17 16 17 18 -10 45 -16 16 -25 33 -22 38 3 6 -4 19 -16 29 -12
10 -19 24 -15 29 3 6 1 11 -4 11 -6 0 -11 7 -11 16 0 14 1 14 16 0 17 -18 30
-20 38 -7 3 5 16 7 29 4 l22 -6 -20 20 c-11 11 -22 19 -25 18 -3 -2 -10 3 -16
9 -14 16 20 61 37 50 9 -5 6 -11 -7 -21 -16 -12 -17 -15 -4 -23 8 -6 32 -15
53 -20 21 -6 35 -15 32 -19 -6 -10 18 -21 46 -21 10 0 19 -4 19 -10 0 -5 9
-10 19 -10 10 0 22 -8 26 -17 6 -16 9 -15 29 8 18 20 35 27 81 32 32 3 63 11
68 16 20 20 27 11 27 -39 0 -49 17 -73 19 -27 6 102 19 142 21 65 1 -7 -2 -25
-6 -41 -8 -35 13 -37 26 -2 5 14 14 25 19 25 6 0 19 10 30 21 11 12 35 24 53
28 22 5 32 12 30 23 -1 10 7 17 22 20 22 4 24 2 21 -24 -2 -15 -1 -28 3 -29 4
0 17 -2 30 -5 15 -3 22 1 22 11 0 8 -7 15 -15 15 -8 0 -15 4 -15 9 0 5 9 7 20
4 11 -3 20 0 20 6 0 6 -7 11 -15 11 -8 0 -15 5 -15 10 0 6 5 10 10 10 6 0 9 6
8 13 -2 6 9 13 23 15 22 3 27 -2 35 -29 12 -41 34 -50 34 -15 0 14 5 26 10 26
6 0 10 7 10 16 0 11 -6 13 -19 9 -24 -7 -37 10 -15 19 13 5 14 9 4 22 -17 20
-3 33 39 36 22 2 36 -2 39 -11 3 -10 -1 -12 -16 -9 -29 8 -49 -16 -32 -37 14
-17 50 -20 50 -5 0 6 -9 10 -20 10 -11 0 -20 5 -20 11 0 8 12 10 35 6 26 -4
35 -2 35 8 0 7 -6 16 -12 18 -10 4 -10 6 -1 6 7 1 20 -14 29 -31 l17 -33 11
25 c15 35 31 50 55 50 12 0 21 4 21 8 0 5 7 17 15 28 13 17 14 8 11 -82 -2
-56 -7 -107 -10 -113 -4 -6 -3 -11 3 -11 5 0 7 -14 4 -33 -6 -37 18 -70 33
-46 4 7 2 15 -4 17 -15 5 -16 32 -2 32 6 0 15 -11 20 -25 5 -14 15 -25 21 -25
11 0 10 12 -7 252 -2 35 0 58 6 58 6 0 10 10 10 21 0 20 4 21 45 15 40 -6 45
-5 45 11 0 18 82 103 99 103 5 0 11 -19 15 -43 9 -51 8 -43 2 -148 -3 -47 -2
-99 3 -117 8 -27 7 -32 -8 -32 -15 0 -17 -7 -11 -52 6 -41 4 -55 -8 -64 -11
-8 -12 -13 -4 -18 18 -11 14 -26 -5 -26 -15 0 -16 -2 -3 -10 8 -5 25 -6 38 -3
22 5 23 4 13 -16 -14 -25 -27 -27 -35 -6 -7 19 -23 19 -23 0 0 -8 6 -15 14
-15 7 0 13 -4 13 -10 0 -5 7 -10 15 -10 8 0 15 -4 15 -10 0 -5 -9 -10 -20 -10
-24 0 -26 -22 -5 -40 20 -16 8 -32 -17 -24 -17 5 -20 3 -15 -11 4 -9 7 -19 7
-21 0 -3 4 -3 9 1 21 12 20 -16 0 -36 l-22 -22 21 5 c26 7 34 -2 21 -22 -8
-13 -10 -13 -18 -1 -5 7 -14 10 -20 7 -16 -10 -14 -26 4 -26 8 0 15 -4 15 -10
0 -5 -5 -10 -11 -10 -6 0 -9 -6 -6 -14 3 -8 0 -17 -8 -20 -8 -3 -11 -13 -8
-26 5 -17 11 -20 32 -16 25 6 25 5 7 -9 -10 -8 -22 -12 -27 -10 -4 3 -10 -9
-14 -26 -5 -21 -3 -34 5 -39 14 -9 6 -60 -10 -60 -6 0 -10 -4 -10 -10 0 -5 22
-10 49 -10 l49 0 4 63 c2 34 -1 65 -6 69 -6 4 -4 14 6 25 13 14 16 33 13 81
-2 34 0 62 3 62 4 0 8 10 8 23 5 90 19 203 26 208 5 3 10 32 13 65 2 32 11 77
19 99 8 22 11 44 6 49 -5 5 -5 18 -1 30 7 19 22 145 25 221 1 17 5 35 8 41 4
5 6 51 5 102 -2 68 -5 92 -15 92 -7 0 -10 5 -7 10 5 8 11 7 21 -1 12 -10 16
-8 21 9 3 12 9 19 14 16 5 -3 9 6 9 19 0 14 11 50 25 81 14 31 25 63 25 70 0
7 7 19 15 26 8 7 15 25 15 41 0 32 13 36 55 17 21 -9 28 -9 34 1 6 10 10 9 14
-4 4 -9 15 -15 24 -13 10 2 17 -2 16 -9 -3 -13 20 -18 70 -14 18 2 34 -4 41
-15 10 -14 30 -18 95 -19 72 -2 81 0 81 16 0 12 5 16 15 13 12 -5 15 2 15 31
0 23 6 42 16 49 8 7 17 31 20 55 2 23 11 58 20 77 9 18 14 40 11 48 -3 7 0 19
6 25 9 9 8 14 -3 21 -10 7 -11 10 -2 10 7 0 12 13 12 29 0 16 5 31 11 33 8 3
6 14 -5 37 -10 18 -15 40 -12 48 3 8 1 13 -5 11 -6 -2 -9 -6 -7 -10 2 -3 -6
-16 -17 -28 -15 -17 -16 -23 -6 -29 9 -6 10 -11 2 -15 -6 -4 -8 -18 -5 -31 3
-12 1 -26 -5 -30 -7 -4 -9 -21 -5 -46 6 -35 4 -39 -15 -39 -16 0 -21 -6 -21
-25 0 -17 4 -23 14 -19 27 10 26 -15 0 -28 -15 -7 -30 -20 -34 -28 -4 -8 -13
-27 -21 -42 -10 -22 -19 -28 -43 -28 -40 1 -66 21 -66 51 l-1 24 -17 -21 c-17
-19 -48 -22 -36 -3 3 5 -3 10 -13 10 -10 1 -23 2 -29 3 -6 0 -22 15 -37 31
-21 23 -26 26 -27 13 0 -10 5 -18 10 -18 14 0 13 -37 -2 -46 -6 -4 -14 -2 -16
4 -2 7 -10 12 -18 12 -8 0 -14 5 -14 10 0 6 -9 10 -20 10 -39 0 -39 97 0 107
14 4 20 14 21 37 1 17 4 51 7 76 3 25 6 118 6 208 0 124 4 162 13 162 16 0 17
12 1 29 -10 11 -10 13 0 7 14 -8 17 10 2 19 -15 9 -13 86 3 83 8 -2 11 7 9 24
-1 14 2 29 8 33 5 3 10 23 10 43 0 20 4 43 9 51 6 9 4 29 -4 52 -11 31 -11 40
0 49 9 8 12 32 10 86 -3 68 -2 77 16 81 20 5 27 23 9 23 -5 0 -10 9 -10 20 0
17 -7 20 -40 20 -37 0 -39 -2 -46 -37z"/>
<path d="M2194 2592 c-15 -9 -11 -89 6 -125 13 -26 12 -30 -16 -54 -25 -22
-26 -25 -7 -19 18 6 22 4 17 -8 -4 -11 0 -16 15 -16 11 0 37 -16 57 -35 20
-20 39 -33 42 -30 4 3 2 9 -3 13 -6 4 -10 47 -10 95 0 57 -4 92 -12 99 -13 11
-6 41 8 32 14 -8 11 1 -9 23 -19 22 -71 37 -88 25z"/>
<path d="M1960 2550 c0 -5 -15 -6 -34 -3 -22 3 -36 1 -42 -8 -10 -17 -5 -91 7
-103 5 -6 9 -23 9 -38 0 -15 5 -28 10 -28 6 0 10 -11 10 -25 0 -18 5 -25 20
-25 23 0 24 -1 8 -34 -9 -21 -8 -29 5 -44 9 -10 19 -32 22 -48 9 -49 12 -328
4 -350 -11 -32 -1 -64 19 -56 15 5 15 3 4 -10 -11 -14 -10 -17 8 -23 17 -6 18
-8 6 -21 -8 -8 -20 -14 -26 -14 -15 0 -3 -60 16 -79 11 -12 16 -12 28 -1 16
12 18 10 20 -19 2 -24 23 -23 29 0 5 17 11 20 29 15 13 -3 31 -6 41 -6 10 0
15 -4 12 -10 -3 -5 0 -10 8 -10 8 0 17 6 20 13 6 16 114 11 135 -5 7 -7 12
-37 12 -82 0 -46 4 -66 9 -57 7 11 10 9 13 -8 5 -37 23 -18 21 24 -8 226 -22
379 -33 383 -6 2 -10 8 -10 13 0 6 5 7 10 4 6 -3 10 -2 10 4 0 5 -6 12 -12 15
-10 5 -10 7 0 12 6 3 12 17 12 30 0 14 -4 22 -10 19 -12 -8 -13 27 -1 41 4 5
11 21 15 37 5 20 3 27 -8 27 -23 0 -28 -17 -28 -86 0 -35 -3 -64 -8 -64 -4 0
-4 -17 0 -37 5 -21 9 -73 8 -115 0 -61 -4 -80 -18 -93 -18 -16 -46 -12 -35 5
2 4 -9 13 -25 20 -17 7 -30 16 -30 21 0 5 -16 9 -35 9 -29 0 -36 -4 -41 -25
-3 -14 -13 -25 -21 -25 -9 0 -13 6 -9 15 4 10 -1 15 -15 15 -29 0 -54 29 -50
58 1 14 -3 28 -9 32 -9 6 -10 20 -2 55 5 26 7 59 3 74 -4 14 -6 53 -5 86 3 71
-4 117 -17 109 -5 -3 -9 0 -9 5 0 6 6 11 14 11 15 0 21 76 6 85 -4 3 -4 21 0
41 6 27 5 37 -6 41 -16 6 -20 73 -4 73 17 0 11 42 -7 56 -17 13 -17 15 3 31
12 10 24 32 27 49 6 31 6 31 -39 32 -24 1 -44 -3 -44 -8z"/>
<path d="M2404 2309 c-4 -7 1 -16 10 -21 9 -5 16 -13 16 -19 0 -18 -24 -36
-42 -31 -12 3 -18 -1 -18 -12 0 -9 7 -16 15 -16 18 0 20 -17 3 -22 -6 -2 -22
6 -36 19 -13 12 -29 20 -33 17 -11 -7 21 -64 36 -64 5 0 3 -5 -5 -10 -13 -9
-13 -11 0 -20 11 -7 18 -4 26 12 8 16 13 17 16 7 4 -9 9 -5 17 14 13 34 25 35
19 2 -4 -17 -1 -25 9 -25 8 0 25 -11 39 -25 24 -24 44 -32 44 -19 0 3 -11 15
-25 26 -18 14 -24 26 -20 39 8 23 -3 61 -15 54 -5 -3 -11 -1 -15 5 -3 6 1 13
10 17 10 3 21 0 25 -7 5 -7 10 -8 14 -2 3 5 -1 15 -9 22 -8 7 -15 23 -15 35 0
15 -8 25 -22 29 -32 8 -36 8 -44 -5z"/>
<path d="M3147 2086 c5 -42 4 -46 -16 -46 -14 0 -21 -6 -21 -20 0 -11 5 -20
12 -20 6 0 0 -10 -14 -22 -13 -13 -32 -36 -42 -51 -16 -27 -16 -30 -1 -47 15
-16 14 -18 -7 -23 -30 -8 -37 -67 -7 -67 21 0 33 -15 24 -30 -5 -8 -11 -8 -20
0 -10 8 -15 3 -24 -21 -15 -43 -14 -97 4 -196 8 -45 17 -111 21 -147 7 -64 6
-65 -16 -59 -17 4 -21 2 -18 -8 3 -8 16 -13 31 -11 22 2 26 -2 29 -29 3 -33
28 -54 28 -24 0 12 6 15 20 10 16 -5 20 -2 20 14 0 12 -4 21 -10 21 -5 0 -10
-4 -10 -8 0 -5 -7 -9 -15 -9 -9 0 -15 10 -15 24 0 16 6 23 19 23 26 0 44 25
36 50 -6 20 -8 20 -19 4 -20 -26 -52 -3 -60 43 -17 99 -18 123 -5 123 10 1 9
4 -3 10 -19 12 -14 46 13 75 14 16 28 19 63 17 44 -4 52 -11 48 -44 -1 -3 5
-11 13 -18 7 -6 11 -18 8 -26 -3 -7 2 -17 11 -20 9 -3 16 -12 16 -19 0 -7 10
-28 23 -46 13 -19 22 -40 19 -47 -2 -7 3 -12 12 -12 19 0 21 14 3 32 -19 19
-62 111 -59 126 2 6 -2 12 -8 12 -5 0 -10 13 -10 30 0 16 -6 33 -12 37 -40 25
-49 49 -37 102 10 47 13 51 40 51 16 0 31 -1 33 -2 2 -2 13 8 25 22 23 28 26
24 10 -16 -10 -27 -9 -27 9 -11 10 9 22 14 25 10 4 -3 7 1 7 11 0 9 -7 19 -15
22 -9 4 -13 13 -10 24 3 10 -3 24 -15 35 -13 11 -18 26 -16 39 3 12 0 9 -6 -6
-7 -16 -18 -28 -25 -28 -11 0 -11 -5 -3 -20 9 -16 15 -18 30 -10 17 9 20 7 20
-10 0 -11 -3 -20 -7 -21 -5 0 -16 -2 -25 -4 -10 -2 -17 0 -17 3 4 26 -2 35
-13 24 -7 -7 -25 -12 -40 -12 -24 0 -28 -4 -28 -26 0 -20 -4 -25 -16 -20 -9 3
-18 6 -20 6 -2 0 -4 8 -3 18 0 11 2 13 6 4 3 -9 12 -3 25 18 11 19 24 30 33
26 9 -3 12 0 8 10 -3 7 -13 14 -23 14 -11 0 -22 5 -25 10 -4 6 -11 8 -16 5 -5
-4 -9 1 -9 9 0 22 26 20 51 -5 42 -42 77 -2 43 49 -10 15 -17 35 -16 45 2 10
-3 17 -13 17 -12 0 -14 6 -9 28 10 43 10 46 -7 49 -14 3 -16 -3 -12 -41z"/>
<path d="M2646 533 c2 -136 4 -258 4 -270 0 -17 6 -23 24 -23 27 0 40 22 23
39 -9 9 -9 14 2 20 9 6 11 20 6 50 -4 23 -8 91 -9 152 -1 80 -5 112 -15 118
-9 6 -14 33 -15 81 0 46 -5 75 -13 77 -9 3 -10 -57 -7 -244z"/>
</g>
</svg>
