<svg xmlns="http://www.w3.org/2000/svg" height="130pt" width="130pt" viewBox="0 0 227.19 227.04">
  <defs>
    <style>
      .a {
        fill: #ffeba1;
      }

      .a, .b, .c {
        stroke: #0f0f0f;
        stroke-miterlimit: 10;
        stroke-width: 1.5px;
      }

      .b {
        fill: #fd6f96;
      }

      .c {
        fill: #007cad;
      }
    </style>
  </defs>
  <g>
    <path class="a" d="M188.62,228.4l-114.72,26a3.12,3.12,0,0,1-3.73-2.34l-28.61-124a3.12,3.12,0,0,1,4.8-3.28l143.33,97.93A3.12,3.12,0,0,1,188.62,228.4Z" transform="translate(-28.06 -28.22)"/>
    <path class="b" d="M212.39,222.46l39.69-9.16a3.12,3.12,0,0,0,2.34-3.74l-6.7-29a3.09,3.09,0,0,0-1.15-1.78L88,58.23a3.12,3.12,0,0,0-2.59-.56L31.23,70.16a3.13,3.13,0,0,0-2.34,3.76L34.61,98a3.15,3.15,0,0,0,1.24,1.84L209.9,222A3.11,3.11,0,0,0,212.39,222.46Z" transform="translate(-28.06 -28.22)"/>
    <path class="c" d="M110,52l99.79-23a3.12,3.12,0,0,1,3.74,2.34l27,117.69a3.12,3.12,0,0,1-4.91,3.19L108.8,57.55A3.12,3.12,0,0,1,110,52Z" transform="translate(-28.06 -28.22)"/>
  </g>
  <path style="fill: #2a4b67;" d="M173.14,172.19c-8.59-16.45-17.62-31.74-21.91-39l-.27-2.44c.95-8.21,16.2-8.26,26.8-18.23C191,100.06,190.25,79.84,190,76.24a49.77,49.77,0,0,0-6.92-22.54C173,37,156.09,32.28,153.49,31.61c-18.39-4.79-37.9,1.79-50.1,15.14-2.9,3.16-13,15-13.16,32.68-.12,14.79,6.81,29.69,18,38.29,13.37,10.22,26.28,7.76,29.83,13.87l.55,1.64s-5,7.15-11.39,18.39c-.44.78-24,46.06-42.72,82a.69.69,0,0,0,.94.93l8.5-4.52a.68.68,0,0,1,.87.19l4,5.23a.69.69,0,0,0,1.11,0l3.75-5.13a.69.69,0,0,1,1-.09l4,3.89a.69.69,0,0,0,.94,0l2.76-2.43a.7.7,0,0,1,1.14.34l2.29,8.72a.69.69,0,0,0,1.31.09l4.63-10.77a.7.7,0,0,1,1.28,0l2.22,5.07a.7.7,0,0,0,1.27,0l19.81-43.68-10.4-13,12.78-19.87L137.1,109.92l-6.94-2.1L128.51,94l-8.8-3-18.32,8L95.6,90.21s0-.23,0-.26a2.53,2.53,0,0,0,.12.23l6.56,6.54,17.46-7.58,10.88,3.31,1.06,14.15,7,2.05,4.24,18,4.51-5,1.95-15.14-3.83-12.94,14-13.75-13.05-17s18.11-9.33,18-9.67l-2.6-8.54.09,0,4.43,9.23-18.49,9.36,14,16.52L147.55,94.36l3,12.06L149,122.61l-5.32,7.07,7.52,28.49-13.33,20.37s9.21,11.65,9.39,11.68h0l26.67,57.18a.69.69,0,0,0,1.24,0c1.13-2.11,2.26-4.21,3.38-6.32a.7.7,0,0,1,1.24,0l4.88,9.41a.7.7,0,0,0,1.27-.07l1.83-4.87a.69.69,0,0,1,.91-.4l6.38,2.58a.69.69,0,0,0,1-.61l.46-7.47a.7.7,0,0,1,1.12-.51l3.78,2.86a.68.68,0,0,0,.7.09l3.78-1.65a.7.7,0,0,0,.34-.95Z" transform="translate(-28.06 -28.22)"/>
</svg>
